<!DOCTYPE svg PUBLIC "-//W3C//DTD SVG 1.1//EN" "http://www.w3.org/Graphics/SVG/1.1/DTD/svg11.dtd">
<!-- Uploaded to: SVG Repo, www.svgrepo.com, Transformed by: SVG Repo Mixer Tools -->
<svg width="800px" height="800px" viewBox="0 0 100 100" xmlns="http://www.w3.org/2000/svg" xmlns:xlink="http://www.w3.org/1999/xlink" aria-hidden="true" role="img" class="iconify iconify--gis" preserveAspectRatio="xMidYMid meet" fill="#2d3748" stroke="#2d3748" stroke-width="0.001">
<g id="SVGRepo_bgCarrier" stroke-width="0"/>
<g id="SVGRepo_tracerCarrier" stroke-linecap="round" stroke-linejoin="round"/>
<g id="SVGRepo_iconCarrier">
<path d="M28.135 21.154a3.5 3.5 0 0 0-2.668 1.235L.832 51.404a3.5 3.5 0 0 0 2.67 5.766l93-.065a3.5 3.5 0 0 0 2.666-5.765L74.59 22.389a3.5 3.5 0 0 0-2.668-1.235zm1.619 7H70.3l18.64 21.957l-77.873.053zM89.91 62.11l-9.178.008l8.211 9.67l-77.875.053l8.22-9.682l-9.188.008L.832 73.08a3.5 3.5 0 0 0 2.67 5.766l93-.065a3.5 3.5 0 0 0 2.666-5.765z" fill="#2d3748"/>
</g>
</svg>